<?xml version="1.0" encoding="UTF-8"?>
<!DOCTYPE svg PUBLIC "-//W3C//DTD SVG 1.1//EN" "http://www.w3.org/Graphics/SVG/1.1/DTD/svg11.dtd">
<!-- Creator: CorelDRAW (Evaluation Version) -->
<svg xmlns="http://www.w3.org/2000/svg" xml:space="preserve" width="210mm" height="210mm" version="1.1" style="shape-rendering:geometricPrecision; text-rendering:geometricPrecision; image-rendering:optimizeQuality; fill-rule:evenodd; clip-rule:evenodd"
viewBox="0 0 21000 21000"
 xmlns:xlink="http://www.w3.org/1999/xlink"
 xmlns:xodm="http://www.corel.com/coreldraw/odm/2003">
 <defs>
  <style type="text/css">
   <![CDATA[
    .str0 {stroke:black;stroke-width:400;stroke-linecap:square;stroke-miterlimit:22.9256}
    .fil0 {fill:none}
   ]]>
  </style>
 </defs>
 <g id="Layer_x0020_1">
  <metadata id="CorelCorpID_0Corel-Layer"/>
  <g id="_1931286114512">
   <line class="fil0 str0" x1="16774.83" y1="7034.82" x2="14764.25" y2= "7034.82" />
   <path class="fil0 str0" d="M8344.5 11373.45c-140.92,57.77 -299.63,93.61 -458.55,105.82 -292.49,81.98 -1108.25,672.81 -1622.58,705.46 -142.18,-26.86 -272.92,-67.27 -423.28,-70.54l-1590.56 -804.78 -99.26 -184.7 -3.3 -1832.39 141.1 -246.91m70.54 -35.28l-70.54 35.28m141.09 -70.55l-70.55 35.27m141.1 -70.54l-70.55 35.27m141.09 -70.55l-70.54 35.28m141.09 -70.55l-70.55 35.27m141.1 -70.54l-70.55 35.27m141.09 -70.55l-70.54 35.28m141.09 -70.55l-70.55 35.27m141.1 -70.54l-70.55 35.27m141.09 -70.55l-70.54 35.28m141.09 -70.55l-70.55 35.27m141.1 -70.54l-70.55 35.27m141.09 -70.55l-70.54 35.28m141.09 -70.55l-70.55 35.27m141.1 -70.54l-70.55 35.27m141.09 -70.55l-70.54 35.28m141.09 -70.55l-70.55 35.27m141.1 -70.54l-70.55 35.27m141.09 -70.55l-70.54 35.28m141.09 -70.55l-70.55 35.27m141.1 -70.54l-70.55 35.27m211.64 -70.55c-81.33,39.11 -15.24,35.28 -141.09,35.28m317.46 -70.55c-106.78,42.37 -35.53,35.27 -176.37,35.27m2469.14 740.74c0,414.17 64.57,2106.09 -35.28,2363.32 137.59,44.61 344.23,94.32 493.83,105.82 292.48,81.98 1108.25,672.81 1622.57,705.46 142.19,-26.86 272.93,-67.27 423.28,-70.54 445.97,-267.11 1257.17,-558.16 1622.58,-846.56 65.4,-113.31 64.53,-127.6 105.82,-246.92l0 -1693.12 -136.95 -249.1 -1524.15 -767.34c-155.67,-18.69 -314.38,-54.53 -455.3,-112.3m-4268.08 0c-81.33,39.11 -15.24,35.27 -141.09,35.27m2116.4 -3174.6c-100.84,39.14 -203.26,61.77 -317.46,70.54l-1477.99 747.73 -140.44 242.12c-4.15,399.87 66.97,1804.87 -39.42,2078.94 137.59,44.61 344.23,94.32 493.83,105.82l1237.75 628.55c147.17,9.64 277.91,50.05 420.1,76.91 112.85,-36.59 260.99,-67.78 388,-70.54l1237.76 -628.56c146.41,-17.86 353.05,-67.57 490.64,-112.18l0 -2045.86 -136.95 -249.1 -1524.15 -767.34c-107.09,-14.96 -249.1,-44.48 -349.48,-77.03l-282.19 0"/>
   <line class="fil0 str0" x1="16774.83" y1="9151.23" x2="14764.25" y2= "9151.23" />
   <line class="fil0 str0" x1="16774.83" y1="11267.63" x2="14764.25" y2= "11267.63" />
   <path class="fil0 str0" d="M15787.18 18675.03c0,-402.06 71.12,-1807.06 -35.27,-2081.13m-10546.74 2081.13l0 -2081.13m10582.01 -2151.67c0,409.02 54.09,1876.07 -35.27,2151.67l-10546.74 0 0 -2151.67m5291.01 -11675.48c409,158.77 8090.88,-88.61 8500.88,70.54 0,1259.62 85.26,11259.17 -35.28,11569.67 -260.47,101.11 -2686.97,35.27 -3174.6,35.27l-10582.01 0 -3174.6 0c-85.02,-219.02 -85.02,-11421.19 0,-11640.21 1104.16,0 8004,114.4 8465.61,-35.27l0 -1058.2"/>
  </g>
 </g>
</svg>
