<?xml version="1.0" encoding="UTF-8"?>
<!DOCTYPE svg PUBLIC "-//W3C//DTD SVG 1.1//EN" "http://www.w3.org/Graphics/SVG/1.1/DTD/svg11.dtd">
<!-- Creator: CorelDRAW (Evaluation Version) -->
<svg xmlns="http://www.w3.org/2000/svg" xml:space="preserve" width="210mm" height="210mm" version="1.1" style="shape-rendering:geometricPrecision; text-rendering:geometricPrecision; image-rendering:optimizeQuality; fill-rule:evenodd; clip-rule:evenodd"
viewBox="0 0 21000 21000"
 xmlns:xlink="http://www.w3.org/1999/xlink"
 xmlns:xodm="http://www.corel.com/coreldraw/odm/2003">
 <defs>
  <style type="text/css">
   <![CDATA[
    .str0 {stroke:black;stroke-width:300;stroke-linecap:square;stroke-miterlimit:22.9256}
    .fil0 {fill:none}
   ]]>
  </style>
 </defs>
 <g id="Layer_x0020_1">
  <metadata id="CorelCorpID_0Corel-Layer"/>
  <g id="_1931362385984">
   <path class="fil0 str0" d="M7668.39 11791.44c-89.63,230.89 -33.07,689.15 -33.07,958.99 202.45,182.48 307.55,132.28 694.45,132.28l363.75 -66.14c102.49,-264.03 76.03,-871.62 33.07,-958.99 -246.17,-221.9 -761.52,-66.14 -1058.2,-66.14z"/>
   <path class="fil0 str0" d="M16398.54 15462.07c-95.47,-245.94 -33.07,-4841.43 -33.07,-5522.48 0,-681.05 62.41,-5276.54 -33.07,-5522.48m2810.85 11011.89c123.24,-380.1 33.07,-5553.77 33.07,-6415.34 0,-2138.44 0,-4276.89 0,-6415.33 -34.26,-216.71 -59.76,-334.33 -165.35,-462.97 -184.23,-224.43 -469.94,-439.92 -760.58,-496.03l-727.51 -33.07c-179.35,28.35 -511.72,99.63 -661.38,198.42l-396.82 396.82c-213.92,341.77 0.34,1806.6 -132.28,2215.61 -1437.22,0 -13131.36,-94.11 -13458.98,33.07 -126.82,326.69 -33.07,11962.11 -33.07,13392.84 59.45,46.98 71.83,58.8 132.28,99.21l14814.8 0c273.05,-43.17 579.52,-101.39 826.72,-264.55 251.35,-165.91 480.18,-583.38 529.1,-892.86 29.33,-185.57 63.17,-867.73 33.07,-1058.2 -28.95,-89.28 -48.31,-170.16 -66.14,-264.55 -165.38,-57.23 -343.71,-128.24 -529.1,-132.28 -144.66,-83.48 -274.56,-111.59 -429.9,-165.34l-496.03 -33.07c-418.94,66.22 -908.2,303.92 -1256.61,330.69 -2.83,130.03 4.79,81.64 -33.07,198.41l0 198.41"/>
   <path class="fil0 str0" d="M12992.46 6599.64c0,-164.26 22.3,-353.4 -33.07,-496.03m-6746.02 496.03l0 -496.03m6779.09 -529.1c0,184.12 19.51,366.96 -33.07,529.1l-6746.02 0 0 -529.1"/>
   <path class="fil0 str0" d="M11570.5 14536.14c211.76,82.21 572.13,57.76 793.65,-33.06 160.46,-404.35 66.14,-3171.39 66.14,-3869.05m-2546.29 3902.11c199.34,77.39 1476.39,68.13 1686.5,0l0 -2612.43c-53.88,-80.59 -60.77,-87.89 -132.27,-165.34l-1488.1 0c-152.81,264.78 -66.13,2309.1 -66.13,2777.77 -279.47,90.62 -2402.23,33.07 -2876.98,33.07 -157.23,-54.4 -96.9,-10.95 -231.49,-132.27l0 -3802.91m-198.41 -99.2c141.42,127.47 31.76,82.77 198.41,99.2l5654.76 0c109.84,-21.22 67.27,-8.27 165.34,-66.14m198.42 33.07c-113.14,-43.92 -62.48,-33.07 -198.42,-33.07 -31.61,-167.3 -100.66,-295.65 -132.27,-462.96l-2645.5 -2645.5c-126.31,-79.06 -336.65,-79.06 -462.96,0l-2612.43 2612.43c-53.98,156 -95.87,313.56 -165.35,462.97 -88.86,34.49 -109.55,31.64 -198.41,66.13"/>
   <path class="fil0 str0" d="M5585.06 14569.21c-164.27,0 -353.41,22.3 -496.03,-33.07m-529.1 33.07c184.11,0 366.95,19.51 529.1,-33.07l0 -7010.57m496.03 0l-496.03 0 -529.1 0"/>
  </g>
 </g>
</svg>
